<?xml version="1.0" encoding="UTF-8" standalone="no"?>
<svg width="400" height="400" xmlns="http://www.w3.org/2000/svg">
  <rect width="100%" height="100%" fill="#ffffff" />
  <path d="M200.00,50.00 A150.00,150.00 0 0,1 296.42,85.09 L200.00,200.00 Z" fill="#0e0e0c" />
  <path d="M296.42,85.09 A150.00,150.00 0 0,1 347.72,173.95 L200.00,200.00 Z" fill="#0f0f0d" />
  <path d="M347.72,173.95 A150.00,150.00 0 0,1 329.90,275.00 L200.00,200.00 Z" fill="#10100e" />
  <path d="M329.90,275.00 A150.00,150.00 0 0,1 251.30,340.95 L200.00,200.00 Z" fill="#0d0d0b" />
  <path d="M251.30,340.95 A150.00,150.00 0 0,1 148.70,340.95 L200.00,200.00 Z" fill="#e42338" />
  <path d="M148.70,340.95 A150.00,150.00 0 0,1 70.10,275.00 L200.00,200.00 Z" fill="#e52439" />
  <path d="M70.10,275.00 A150.00,150.00 0 0,1 52.28,173.95 L200.00,200.00 Z" fill="#e32235" />
  <path d="M52.28,173.95 A150.00,150.00 0 0,1 103.58,85.09 L200.00,200.00 Z" fill="#0c0c0a" />
  <path d="M103.58,85.09 A150.00,150.00 0 0,1 200.00,50.00 L200.00,200.00 Z" fill="#11110f" />
</svg>
