<?xml version="1.0" encoding="UTF-8" standalone="no"?>
<svg width="400" height="400" xmlns="http://www.w3.org/2000/svg">
  <rect width="100%" height="100%" fill="#ffffff" />
  <path d="M200.00,50.00 A150.00,150.00 0 0,1 240.47,55.56 L200.00,200.00 Z" fill="#0e0e0c" />
  <path d="M240.47,55.56 A150.00,150.00 0 0,1 277.94,71.84 L200.00,200.00 Z" fill="#0f0f0d" />
  <path d="M277.94,71.84 A150.00,150.00 0 0,1 309.63,97.62 L200.00,200.00 Z" fill="#10100e" />
  <path d="M309.63,97.62 A150.00,150.00 0 0,1 333.18,130.99 L200.00,200.00 Z" fill="#0d0d0b" />
  <path d="M333.18,130.99 A150.00,150.00 0 0,1 346.86,169.48 L200.00,200.00 Z" fill="#e42338" />
  <path d="M346.86,169.48 A150.00,150.00 0 0,1 349.65,210.24 L200.00,200.00 Z" fill="#e52439" />
  <path d="M349.65,210.24 A150.00,150.00 0 0,1 341.34,250.23 L200.00,200.00 Z" fill="#e32235" />
  <path d="M341.34,250.23 A150.00,150.00 0 0,1 322.55,286.50 L200.00,200.00 Z" fill="#0c0c0a" />
  <path d="M322.55,286.50 A150.00,150.00 0 0,1 294.66,316.36 L200.00,200.00 Z" fill="#11110f" />
  <path d="M294.66,316.36 A150.00,150.00 0 0,1 259.76,337.58 L200.00,200.00 Z" fill="#e62538" />
  <path d="M259.76,337.58 A150.00,150.00 0 0,1 220.42,348.60 L200.00,200.00 Z" fill="#0b0d0c" />
  <path d="M220.42,348.60 A150.00,150.00 0 0,1 179.58,348.60 L200.00,200.00 Z" fill="#e72639" />
  <path d="M179.58,348.60 A150.00,150.00 0 0,1 140.24,337.58 L200.00,200.00 Z" fill="#090b08" />
  <path d="M140.24,337.58 A150.00,150.00 0 0,1 105.34,316.36 L200.00,200.00 Z" fill="#e2222f" />
  <path d="M105.34,316.36 A150.00,150.00 0 0,1 77.45,286.50 L200.00,200.00 Z" fill="#0b0b09" />
  <path d="M77.45,286.50 A150.00,150.00 0 0,1 58.66,250.23 L200.00,200.00 Z" fill="#e22134" />
  <path d="M58.66,250.23 A150.00,150.00 0 0,1 50.35,210.24 L200.00,200.00 Z" fill="#0a0a08" />
  <path d="M50.35,210.24 A150.00,150.00 0 0,1 53.14,169.48 L200.00,200.00 Z" fill="#121210" />
  <path d="M53.14,169.48 A150.00,150.00 0 0,1 66.82,130.99 L200.00,200.00 Z" fill="#d21c29" />
  <path d="M66.82,130.99 A150.00,150.00 0 0,1 90.37,97.62 L200.00,200.00 Z" fill="#e1212e" />
  <path d="M90.37,97.62 A150.00,150.00 0 0,1 122.06,71.84 L200.00,200.00 Z" fill="#d31d2a" />
  <path d="M122.06,71.84 A150.00,150.00 0 0,1 159.53,55.56 L200.00,200.00 Z" fill="#cb1925" />
  <path d="M159.53,55.56 A150.00,150.00 0 0,1 200.00,50.00 L200.00,200.00 Z" fill="#ca1824" />
</svg>
